<?xml version="1.0" encoding="UTF-8" standalone="no"?>
<!DOCTYPE svg PUBLIC "-//W3C//DTD SVG 1.1//EN"
 "http://www.w3.org/Graphics/SVG/1.1/DTD/svg11.dtd">
<!-- Generated by graphviz version 5.0.0 (20220707.1540)
 -->
<!-- Title: dependencies Pages: 1 -->
<svg width="2884pt" height="247pt"
 viewBox="0.00 0.00 2884.00 246.80" xmlns="http://www.w3.org/2000/svg" xmlns:xlink="http://www.w3.org/1999/xlink">
<g id="graph0" class="graph" transform="scale(1 1) rotate(0) translate(4 242.8)">
<title>dependencies</title>
<polygon fill="white" stroke="transparent" points="-4,4 -4,-242.8 2880,-242.8 2880,4 -4,4"/>
<text text-anchor="middle" x="1438" y="-8.2" font-family="sans-serif" font-size="14.00">dependencies</text>
<g id="clust1" class="cluster">
<title>cluster_AppModule</title>
<polygon fill="none" stroke="black" stroke-dasharray="1,5" points="8,-32.8 8,-230.8 2868,-230.8 2868,-32.8 8,-32.8"/>
</g>
<g id="clust22" class="cluster">
<title>cluster_AppModule_bootstrap</title>
<polygon fill="none" stroke="black" points="1343,-170.8 1343,-222.8 1467,-222.8 1467,-170.8 1343,-170.8"/>
</g>
<g id="clust23" class="cluster">
<title>cluster_AppModule_providers</title>
<polygon fill="none" stroke="black" points="2680,-40.8 2680,-92.8 2860,-92.8 2860,-40.8 2680,-40.8"/>
</g>
<g id="clust20" class="cluster">
<title>cluster_AppModule_imports</title>
<polygon fill="none" stroke="black" points="2390,-40.8 2390,-92.8 2672,-92.8 2672,-40.8 2390,-40.8"/>
</g>
<g id="clust2" class="cluster">
<title>cluster_AppModule_declarations</title>
<polygon fill="none" stroke="black" points="16,-40.8 16,-92.8 2382,-92.8 2382,-40.8 16,-40.8"/>
</g>
<!-- AboutComponent -->
<g id="node1" class="node">
<title>AboutComponent</title>
<polygon fill="#ffffb3" stroke="black" points="2374.33,-84.8 2257.67,-84.8 2257.67,-48.8 2374.33,-48.8 2374.33,-84.8"/>
<text text-anchor="middle" x="2316" y="-62.6" font-family="Times,serif" font-size="14.00">AboutComponent</text>
</g>
<!-- AppModule -->
<g id="node18" class="node">
<title>AppModule</title>
<polygon fill="#8dd3c7" stroke="black" points="1446.66,-149.8 1443.66,-153.8 1422.66,-153.8 1419.66,-149.8 1363.34,-149.8 1363.34,-113.8 1446.66,-113.8 1446.66,-149.8"/>
<text text-anchor="middle" x="1405" y="-127.6" font-family="Times,serif" font-size="14.00">AppModule</text>
</g>
<!-- AboutComponent&#45;&gt;AppModule -->
<g id="edge1" class="edge">
<title>AboutComponent&#45;&gt;AppModule</title>
<path fill="none" stroke="black" d="M2316,-84.93C2316,-105.37 2316,-135.8 2316,-135.8 2316,-135.8 1456.81,-135.8 1456.81,-135.8"/>
<polygon fill="black" stroke="black" points="1456.81,-132.3 1446.81,-135.8 1456.81,-139.3 1456.81,-132.3"/>
</g>
<!-- AppComponent -->
<g id="node2" class="node">
<title>AppComponent</title>
<polygon fill="#ffffb3" stroke="black" points="2239.94,-84.8 2134.06,-84.8 2134.06,-48.8 2239.94,-48.8 2239.94,-84.8"/>
<text text-anchor="middle" x="2187" y="-62.6" font-family="Times,serif" font-size="14.00">AppComponent</text>
</g>
<!-- AppComponent&#45;&gt;AppModule -->
<g id="edge2" class="edge">
<title>AppComponent&#45;&gt;AppModule</title>
<path fill="none" stroke="black" d="M2187,-84.91C2187,-104.14 2187,-131.8 2187,-131.8 2187,-131.8 1456.77,-131.8 1456.77,-131.8"/>
<polygon fill="black" stroke="black" points="1456.77,-128.3 1446.77,-131.8 1456.77,-135.3 1456.77,-128.3"/>
</g>
<!-- HomeComponent -->
<g id="node3" class="node">
<title>HomeComponent</title>
<polygon fill="#ffffb3" stroke="black" points="2116.55,-84.8 2001.45,-84.8 2001.45,-48.8 2116.55,-48.8 2116.55,-84.8"/>
<text text-anchor="middle" x="2059" y="-62.6" font-family="Times,serif" font-size="14.00">HomeComponent</text>
</g>
<!-- HomeComponent&#45;&gt;AppModule -->
<g id="edge3" class="edge">
<title>HomeComponent&#45;&gt;AppModule</title>
<path fill="none" stroke="black" d="M2059,-85.07C2059,-103.36 2059,-128.8 2059,-128.8 2059,-128.8 1456.91,-128.8 1456.91,-128.8"/>
<polygon fill="black" stroke="black" points="1456.91,-125.3 1446.91,-128.8 1456.91,-132.3 1456.91,-125.3"/>
</g>
<!-- HomeHeaderComponent -->
<g id="node4" class="node">
<title>HomeHeaderComponent</title>
<polygon fill="#ffffb3" stroke="black" points="1982.96,-84.8 1827.04,-84.8 1827.04,-48.8 1982.96,-48.8 1982.96,-84.8"/>
<text text-anchor="middle" x="1905" y="-62.6" font-family="Times,serif" font-size="14.00">HomeHeaderComponent</text>
</g>
<!-- HomeHeaderComponent&#45;&gt;AppModule -->
<g id="edge4" class="edge">
<title>HomeHeaderComponent&#45;&gt;AppModule</title>
<path fill="none" stroke="black" d="M1905,-84.83C1905,-101.86 1905,-124.8 1905,-124.8 1905,-124.8 1456.77,-124.8 1456.77,-124.8"/>
<polygon fill="black" stroke="black" points="1456.77,-121.3 1446.77,-124.8 1456.77,-128.3 1456.77,-121.3"/>
</g>
<!-- ItemComponent -->
<g id="node5" class="node">
<title>ItemComponent</title>
<polygon fill="#ffffb3" stroke="black" points="1809.49,-84.8 1702.51,-84.8 1702.51,-48.8 1809.49,-48.8 1809.49,-84.8"/>
<text text-anchor="middle" x="1756" y="-62.6" font-family="Times,serif" font-size="14.00">ItemComponent</text>
</g>
<!-- ItemComponent&#45;&gt;AppModule -->
<g id="edge5" class="edge">
<title>ItemComponent&#45;&gt;AppModule</title>
<path fill="none" stroke="black" d="M1756,-84.81C1756,-100.85 1756,-121.8 1756,-121.8 1756,-121.8 1456.99,-121.8 1456.99,-121.8"/>
<polygon fill="black" stroke="black" points="1456.99,-118.3 1446.99,-121.8 1456.99,-125.3 1456.99,-118.3"/>
</g>
<!-- LoadingComponent -->
<g id="node6" class="node">
<title>LoadingComponent</title>
<polygon fill="#ffffb3" stroke="black" points="1684.99,-84.8 1557.01,-84.8 1557.01,-48.8 1684.99,-48.8 1684.99,-84.8"/>
<text text-anchor="middle" x="1621" y="-62.6" font-family="Times,serif" font-size="14.00">LoadingComponent</text>
</g>
<!-- LoadingComponent&#45;&gt;AppModule -->
<g id="edge6" class="edge">
<title>LoadingComponent&#45;&gt;AppModule</title>
<path fill="none" stroke="black" d="M1621,-84.92C1621,-99.58 1621,-117.8 1621,-117.8 1621,-117.8 1456.9,-117.8 1456.9,-117.8"/>
<polygon fill="black" stroke="black" points="1456.9,-114.3 1446.9,-117.8 1456.9,-121.3 1456.9,-114.3"/>
</g>
<!-- LoginComponent -->
<g id="node7" class="node">
<title>LoginComponent</title>
<polygon fill="#ffffb3" stroke="black" points="1539.27,-84.8 1424.73,-84.8 1424.73,-48.8 1539.27,-48.8 1539.27,-84.8"/>
<text text-anchor="middle" x="1482" y="-62.6" font-family="Times,serif" font-size="14.00">LoginComponent</text>
</g>
<!-- LoginComponent&#45;&gt;AppModule -->
<g id="edge7" class="edge">
<title>LoginComponent&#45;&gt;AppModule</title>
<path fill="none" stroke="black" d="M1435.72,-84.91C1435.72,-84.91 1435.72,-103.79 1435.72,-103.79"/>
<polygon fill="black" stroke="black" points="1432.22,-103.79 1435.72,-113.79 1439.22,-103.79 1432.22,-103.79"/>
</g>
<!-- MovieDetailsComponent -->
<g id="node8" class="node">
<title>MovieDetailsComponent</title>
<polygon fill="#ffffb3" stroke="black" points="1406.54,-84.8 1249.46,-84.8 1249.46,-48.8 1406.54,-48.8 1406.54,-84.8"/>
<text text-anchor="middle" x="1328" y="-62.6" font-family="Times,serif" font-size="14.00">MovieDetailsComponent</text>
</g>
<!-- MovieDetailsComponent&#45;&gt;AppModule -->
<g id="edge8" class="edge">
<title>MovieDetailsComponent&#45;&gt;AppModule</title>
<path fill="none" stroke="black" d="M1384.97,-84.91C1384.97,-84.91 1384.97,-103.79 1384.97,-103.79"/>
<polygon fill="black" stroke="black" points="1381.47,-103.79 1384.97,-113.79 1388.47,-103.79 1381.47,-103.79"/>
</g>
<!-- MoviesComponent -->
<g id="node9" class="node">
<title>MoviesComponent</title>
<polygon fill="#ffffb3" stroke="black" points="1231.83,-84.8 1108.17,-84.8 1108.17,-48.8 1231.83,-48.8 1231.83,-84.8"/>
<text text-anchor="middle" x="1170" y="-62.6" font-family="Times,serif" font-size="14.00">MoviesComponent</text>
</g>
<!-- MoviesComponent&#45;&gt;AppModule -->
<g id="edge9" class="edge">
<title>MoviesComponent&#45;&gt;AppModule</title>
<path fill="none" stroke="black" d="M1170,-84.92C1170,-99.58 1170,-117.8 1170,-117.8 1170,-117.8 1353.26,-117.8 1353.26,-117.8"/>
<polygon fill="black" stroke="black" points="1353.26,-121.3 1363.26,-117.8 1353.26,-114.3 1353.26,-121.3"/>
</g>
<!-- NavbarComponent -->
<g id="node10" class="node">
<title>NavbarComponent</title>
<polygon fill="#ffffb3" stroke="black" points="1090.03,-84.8 967.97,-84.8 967.97,-48.8 1090.03,-48.8 1090.03,-84.8"/>
<text text-anchor="middle" x="1029" y="-62.6" font-family="Times,serif" font-size="14.00">NavbarComponent</text>
</g>
<!-- NavbarComponent&#45;&gt;AppModule -->
<g id="edge10" class="edge">
<title>NavbarComponent&#45;&gt;AppModule</title>
<path fill="none" stroke="black" d="M1029,-84.81C1029,-100.85 1029,-121.8 1029,-121.8 1029,-121.8 1353.32,-121.8 1353.32,-121.8"/>
<polygon fill="black" stroke="black" points="1353.32,-125.3 1363.32,-121.8 1353.32,-118.3 1353.32,-125.3"/>
</g>
<!-- NetworkComponent -->
<g id="node11" class="node">
<title>NetworkComponent</title>
<polygon fill="#ffffb3" stroke="black" points="950.32,-84.8 819.68,-84.8 819.68,-48.8 950.32,-48.8 950.32,-84.8"/>
<text text-anchor="middle" x="885" y="-62.6" font-family="Times,serif" font-size="14.00">NetworkComponent</text>
</g>
<!-- NetworkComponent&#45;&gt;AppModule -->
<g id="edge11" class="edge">
<title>NetworkComponent&#45;&gt;AppModule</title>
<path fill="none" stroke="black" d="M885,-84.83C885,-101.86 885,-124.8 885,-124.8 885,-124.8 1353.33,-124.8 1353.33,-124.8"/>
<polygon fill="black" stroke="black" points="1353.33,-128.3 1363.33,-124.8 1353.33,-121.3 1353.33,-128.3"/>
</g>
<!-- NotFoundComponent -->
<g id="node12" class="node">
<title>NotFoundComponent</title>
<polygon fill="#ffffb3" stroke="black" points="802.12,-84.8 663.88,-84.8 663.88,-48.8 802.12,-48.8 802.12,-84.8"/>
<text text-anchor="middle" x="733" y="-62.6" font-family="Times,serif" font-size="14.00">NotFoundComponent</text>
</g>
<!-- NotFoundComponent&#45;&gt;AppModule -->
<g id="edge12" class="edge">
<title>NotFoundComponent&#45;&gt;AppModule</title>
<path fill="none" stroke="black" d="M733,-85.07C733,-103.36 733,-128.8 733,-128.8 733,-128.8 1353.22,-128.8 1353.22,-128.8"/>
<polygon fill="black" stroke="black" points="1353.22,-132.3 1363.22,-128.8 1353.22,-125.3 1353.22,-132.3"/>
</g>
<!-- PeopleComponent -->
<g id="node13" class="node">
<title>PeopleComponent</title>
<polygon fill="#ffffb3" stroke="black" points="645.94,-84.8 526.06,-84.8 526.06,-48.8 645.94,-48.8 645.94,-84.8"/>
<text text-anchor="middle" x="586" y="-62.6" font-family="Times,serif" font-size="14.00">PeopleComponent</text>
</g>
<!-- PeopleComponent&#45;&gt;AppModule -->
<g id="edge13" class="edge">
<title>PeopleComponent&#45;&gt;AppModule</title>
<path fill="none" stroke="black" d="M586,-84.91C586,-104.14 586,-131.8 586,-131.8 586,-131.8 1353.26,-131.8 1353.26,-131.8"/>
<polygon fill="black" stroke="black" points="1353.26,-135.3 1363.26,-131.8 1353.26,-128.3 1353.26,-135.3"/>
</g>
<!-- RegisterComponent -->
<g id="node14" class="node">
<title>RegisterComponent</title>
<polygon fill="#ffffb3" stroke="black" points="507.99,-84.8 380.01,-84.8 380.01,-48.8 507.99,-48.8 507.99,-84.8"/>
<text text-anchor="middle" x="444" y="-62.6" font-family="Times,serif" font-size="14.00">RegisterComponent</text>
</g>
<!-- RegisterComponent&#45;&gt;AppModule -->
<g id="edge14" class="edge">
<title>RegisterComponent&#45;&gt;AppModule</title>
<path fill="none" stroke="black" d="M444,-84.93C444,-105.37 444,-135.8 444,-135.8 444,-135.8 1353.09,-135.8 1353.09,-135.8"/>
<polygon fill="black" stroke="black" points="1353.09,-139.3 1363.09,-135.8 1353.09,-132.3 1353.09,-139.3"/>
</g>
<!-- SearchPipe -->
<g id="node15" class="node">
<title>SearchPipe</title>
<polygon fill="#ffffb3" stroke="black" points="362.48,-84.8 283.52,-84.8 283.52,-48.8 362.48,-48.8 362.48,-84.8"/>
<text text-anchor="middle" x="323" y="-62.6" font-family="Times,serif" font-size="14.00">SearchPipe</text>
</g>
<!-- SearchPipe&#45;&gt;AppModule -->
<g id="edge15" class="edge">
<title>SearchPipe&#45;&gt;AppModule</title>
<path fill="none" stroke="black" d="M323,-84.84C323,-106.46 323,-139.8 323,-139.8 323,-139.8 1353.25,-139.8 1353.25,-139.8"/>
<polygon fill="black" stroke="black" points="1353.25,-143.3 1363.25,-139.8 1353.25,-136.3 1353.25,-143.3"/>
</g>
<!-- SeemorePipe -->
<g id="node16" class="node">
<title>SeemorePipe</title>
<polygon fill="#ffffb3" stroke="black" points="265.87,-84.8 176.13,-84.8 176.13,-48.8 265.87,-48.8 265.87,-84.8"/>
<text text-anchor="middle" x="221" y="-62.6" font-family="Times,serif" font-size="14.00">SeemorePipe</text>
</g>
<!-- SeemorePipe&#45;&gt;AppModule -->
<g id="edge16" class="edge">
<title>SeemorePipe&#45;&gt;AppModule</title>
<path fill="none" stroke="black" d="M221,-84.81C221,-107.29 221,-142.8 221,-142.8 221,-142.8 1353.21,-142.8 1353.21,-142.8"/>
<polygon fill="black" stroke="black" points="1353.21,-146.3 1363.21,-142.8 1353.21,-139.3 1353.21,-146.3"/>
</g>
<!-- TvShowsComponent -->
<g id="node17" class="node">
<title>TvShowsComponent</title>
<polygon fill="#ffffb3" stroke="black" points="158.23,-84.8 23.77,-84.8 23.77,-48.8 158.23,-48.8 158.23,-84.8"/>
<text text-anchor="middle" x="91" y="-62.6" font-family="Times,serif" font-size="14.00">TvShowsComponent</text>
</g>
<!-- TvShowsComponent&#45;&gt;AppModule -->
<g id="edge17" class="edge">
<title>TvShowsComponent&#45;&gt;AppModule</title>
<path fill="none" stroke="black" d="M91,-84.95C91,-108.56 91,-146.8 91,-146.8 91,-146.8 1353.14,-146.8 1353.14,-146.8"/>
<polygon fill="black" stroke="black" points="1353.14,-150.3 1363.14,-146.8 1353.14,-143.3 1353.14,-150.3"/>
</g>
<!-- AppComponent  -->
<g id="node21" class="node">
<title>AppComponent </title>
<polygon fill="#80b1d3" stroke="black" points="1459.44,-214.8 1350.56,-214.8 1350.56,-178.8 1459.44,-178.8 1459.44,-214.8"/>
<text text-anchor="middle" x="1405" y="-192.6" font-family="Times,serif" font-size="14.00">AppComponent </text>
</g>
<!-- AppModule&#45;&gt;AppComponent  -->
<g id="edge20" class="edge">
<title>AppModule&#45;&gt;AppComponent </title>
<path fill="none" stroke="black" stroke-dasharray="1,5" d="M1405,-149.91C1405,-149.91 1405,-168.79 1405,-168.79"/>
<polygon fill="black" stroke="black" points="1401.5,-168.79 1405,-178.79 1408.5,-168.79 1401.5,-168.79"/>
</g>
<!-- AppRoutingModule -->
<g id="node19" class="node">
<title>AppRoutingModule</title>
<polygon fill="#8dd3c7" stroke="black" points="2664.28,-84.8 2661.28,-88.8 2640.28,-88.8 2637.28,-84.8 2535.72,-84.8 2535.72,-48.8 2664.28,-48.8 2664.28,-84.8"/>
<text text-anchor="middle" x="2600" y="-62.6" font-family="Times,serif" font-size="14.00">AppRoutingModule</text>
</g>
<!-- AppRoutingModule&#45;&gt;AppModule -->
<g id="edge18" class="edge">
<title>AppRoutingModule&#45;&gt;AppModule</title>
<path fill="none" stroke="black" d="M2600,-84.81C2600,-107.29 2600,-142.8 2600,-142.8 2600,-142.8 1456.83,-142.8 1456.83,-142.8"/>
<polygon fill="black" stroke="black" points="1456.83,-139.3 1446.83,-142.8 1456.83,-146.3 1456.83,-139.3"/>
</g>
<!-- PaginationModule -->
<g id="node20" class="node">
<title>PaginationModule</title>
<polygon fill="#8dd3c7" stroke="black" points="2517.94,-84.8 2514.94,-88.8 2493.94,-88.8 2490.94,-84.8 2398.06,-84.8 2398.06,-48.8 2517.94,-48.8 2517.94,-84.8"/>
<text text-anchor="middle" x="2458" y="-62.6" font-family="Times,serif" font-size="14.00">PaginationModule</text>
</g>
<!-- PaginationModule&#45;&gt;AppModule -->
<g id="edge19" class="edge">
<title>PaginationModule&#45;&gt;AppModule</title>
<path fill="none" stroke="black" d="M2458,-84.84C2458,-106.46 2458,-139.8 2458,-139.8 2458,-139.8 1456.93,-139.8 1456.93,-139.8"/>
<polygon fill="black" stroke="black" points="1456.93,-136.3 1446.93,-139.8 1456.93,-143.3 1456.93,-136.3"/>
</g>
<!-- MoviesInterceptor -->
<g id="node22" class="node">
<title>MoviesInterceptor</title>
<ellipse fill="#fdb462" stroke="black" cx="2770" cy="-66.8" rx="82.23" ry="18"/>
<text text-anchor="middle" x="2770" y="-62.6" font-family="Times,serif" font-size="14.00">MoviesInterceptor</text>
</g>
<!-- MoviesInterceptor&#45;&gt;AppModule -->
<g id="edge21" class="edge">
<title>MoviesInterceptor&#45;&gt;AppModule</title>
<path fill="none" stroke="black" d="M2770,-84.95C2770,-108.56 2770,-146.8 2770,-146.8 2770,-146.8 1456.97,-146.8 1456.97,-146.8"/>
<polygon fill="black" stroke="black" points="1456.97,-143.3 1446.97,-146.8 1456.97,-150.3 1456.97,-143.3"/>
</g>
</g>
</svg>
