<?xml version="1.0" encoding="UTF-8" standalone="no"?>
<!DOCTYPE svg PUBLIC "-//W3C//DTD SVG 1.1//EN"
 "http://www.w3.org/Graphics/SVG/1.1/DTD/svg11.dtd">
<!-- Generated by graphviz version 5.0.0 (20220707.1540)
 -->
<!-- Title: dependencies Pages: 1 -->
<svg width="344pt" height="174pt"
 viewBox="0.00 0.00 344.00 173.80" xmlns="http://www.w3.org/2000/svg" xmlns:xlink="http://www.w3.org/1999/xlink">
<g id="graph0" class="graph" transform="scale(1 1) rotate(0) translate(4 169.8)">
<title>dependencies</title>
<polygon fill="white" stroke="transparent" points="-4,4 -4,-169.8 340,-169.8 340,4 -4,4"/>
<text text-anchor="middle" x="168" y="-8.2" font-family="sans-serif" font-size="14.00">dependencies</text>
<g id="clust1" class="cluster">
<title>cluster_SettingModule</title>
<polygon fill="none" stroke="black" stroke-dasharray="1,5" points="8,-32.8 8,-157.8 328,-157.8 328,-32.8 8,-32.8"/>
</g>
<g id="clust4" class="cluster">
<title>cluster_SettingModule_imports</title>
<polygon fill="none" stroke="black" points="160,-40.8 160,-92.8 320,-92.8 320,-40.8 160,-40.8"/>
</g>
<g id="clust2" class="cluster">
<title>cluster_SettingModule_declarations</title>
<polygon fill="none" stroke="black" points="16,-40.8 16,-92.8 152,-92.8 152,-40.8 16,-40.8"/>
</g>
<!-- ProfileComponent -->
<g id="node1" class="node">
<title>ProfileComponent</title>
<polygon fill="#ffffb3" stroke="black" points="143.94,-84.8 24.06,-84.8 24.06,-48.8 143.94,-48.8 143.94,-84.8"/>
<text text-anchor="middle" x="84" y="-62.6" font-family="Times,serif" font-size="14.00">ProfileComponent</text>
</g>
<!-- SettingModule -->
<g id="node2" class="node">
<title>SettingModule</title>
<polygon fill="#8dd3c7" stroke="black" points="211.72,-149.8 208.72,-153.8 187.72,-153.8 184.72,-149.8 112.28,-149.8 112.28,-113.8 211.72,-113.8 211.72,-149.8"/>
<text text-anchor="middle" x="162" y="-127.6" font-family="Times,serif" font-size="14.00">SettingModule</text>
</g>
<!-- ProfileComponent&#45;&gt;SettingModule -->
<g id="edge1" class="edge">
<title>ProfileComponent&#45;&gt;SettingModule</title>
<path fill="none" stroke="black" d="M128.05,-84.91C128.05,-84.91 128.05,-103.79 128.05,-103.79"/>
<polygon fill="black" stroke="black" points="124.55,-103.79 128.05,-113.79 131.55,-103.79 124.55,-103.79"/>
</g>
<!-- SettingRoutingModule -->
<g id="node3" class="node">
<title>SettingRoutingModule</title>
<polygon fill="#8dd3c7" stroke="black" points="312.34,-84.8 309.34,-88.8 288.34,-88.8 285.34,-84.8 167.66,-84.8 167.66,-48.8 312.34,-48.8 312.34,-84.8"/>
<text text-anchor="middle" x="240" y="-62.6" font-family="Times,serif" font-size="14.00">SettingRoutingModule</text>
</g>
<!-- SettingRoutingModule&#45;&gt;SettingModule -->
<g id="edge2" class="edge">
<title>SettingRoutingModule&#45;&gt;SettingModule</title>
<path fill="none" stroke="black" d="M189.72,-84.91C189.72,-84.91 189.72,-103.79 189.72,-103.79"/>
<polygon fill="black" stroke="black" points="186.22,-103.79 189.72,-113.79 193.22,-103.79 186.22,-103.79"/>
</g>
</g>
</svg>
